<svg width="1437" height="628" viewBox="0 0 1437 628" fill="none" xmlns="http://www.w3.org/2000/svg">
<path d="M1027.3 258.294C1039.81 258.294 1050.63 262.863 1059.77 272.001C1068.91 281.14 1073.47 291.961 1073.47 304.466C1073.47 316.971 1068.91 327.793 1059.77 336.931C1050.63 346.069 1039.81 350.639 1027.3 350.639C1014.32 350.639 1002.29 353.043 991.23 357.853C980.168 362.663 970.309 369.396 961.651 378.053C953.475 386.23 946.982 395.849 942.172 406.911C937.363 417.973 934.958 429.997 934.958 442.983V581.5C934.958 594.005 930.389 604.827 921.251 613.965C912.112 623.103 901.291 627.673 888.786 627.673C876.281 627.673 865.459 623.103 856.321 613.965C847.182 604.827 842.613 594.005 842.613 581.5V442.983C842.613 417.492 847.423 393.685 857.042 371.56C866.661 348.955 879.888 329.236 896.721 312.402C913.555 295.568 933.034 282.342 955.158 272.723C977.763 263.104 1001.81 258.294 1027.3 258.294Z" fill="#6467AE"/>
<path d="M207.786 239.252C199.562 239.252 191.523 236.813 184.685 232.244C177.847 227.676 172.517 221.182 169.37 213.584C166.223 205.986 165.4 197.625 167.004 189.559C168.608 181.494 172.569 174.085 178.384 168.27C184.199 162.454 191.608 158.494 199.674 156.89C207.74 155.285 216.1 156.109 223.698 159.256C231.296 162.403 237.79 167.733 242.359 174.571C246.928 181.408 249.366 189.448 249.366 197.671C249.355 208.696 244.97 219.265 237.175 227.06C229.379 234.856 218.81 239.24 207.786 239.252Z" fill="#6467AE"/>
<path d="M369.379 0C394.879 0.000101837 415.551 20.6719 415.551 46.1719V419.391C415.551 436.203 408.873 452.328 396.984 464.216L254.001 607.198C228.471 632.728 187.08 632.728 161.55 607.198L18.5674 464.216C6.67907 452.328 0 436.203 0 419.391V237.873C2.53028e-05 225.368 4.5689 214.546 13.707 205.408C22.8452 196.27 33.6671 191.701 46.1719 191.701C58.6769 191.701 69.4994 196.27 78.6377 205.408C87.7758 214.546 92.3447 225.368 92.3447 237.873V244.345C88.6537 243.349 85.5106 242.472 83.0352 241.769C81.0931 241.018 79.1094 240.378 77.0947 239.853C62.9874 236.14 53.3351 250.471 53.335 263.568C53.335 276.54 64.992 282.719 76.7607 287.151V287.358L92.3447 292.226V397.278C92.3449 414.281 99.1755 430.571 111.302 442.489L136.939 467.688L129.101 510.595C129.026 510.951 128.96 511.315 128.9 511.687L128.729 512.629C127.007 524.62 135.813 536.256 152.489 536.256C167.042 536.256 173.466 526.21 176.25 512.54C176.592 510.863 177.162 507.838 177.919 503.819C196.597 513.412 218.919 513.416 237.601 503.835C238.643 509.266 239.243 512.529 239.245 512.54C242.03 526.21 248.452 536.256 263.005 536.256C279.726 536.256 288.533 524.569 286.766 512.54C286.614 511.529 286.426 510.523 286.201 509.525L278.422 467.873L304.25 442.489C316.376 430.571 323.206 414.281 323.206 397.278V292.584L337.241 287.678C337.648 287.569 338.05 287.441 338.444 287.292C350.324 282.837 362.204 276.674 362.204 263.584C362.204 250.494 352.559 236.141 338.451 239.846L338.117 239.935L337.806 240.031C337.063 240.239 336.321 240.462 335.578 240.692C333.067 241.429 328.796 242.655 323.206 244.17V46.1719C323.206 20.6718 343.879 0 369.379 0ZM323.206 292.584L270.95 310.852C262.426 314.052 258.773 317.378 257.971 318.863C257.954 318.902 257.934 318.939 257.911 318.975C257.065 320.482 254.563 326.913 257.674 346.374L261.973 379.786L278.422 467.873L253.6 492.271C248.753 497.034 243.349 500.887 237.601 503.835C232.395 476.713 216.094 395.543 207.436 395.543C198.315 395.543 183.337 475.077 177.919 503.819C172.183 500.873 166.789 497.025 161.951 492.271L136.939 467.688L153.002 379.771L157.309 346.358C158.177 340.923 160.628 325.353 157.562 317.49C156.619 315.04 154.687 312.211 147.463 309.441L92.3447 292.226V244.345C117.749 251.197 169.115 263.65 207.45 263.65C246.11 263.65 298.037 250.992 323.206 244.17V292.584Z" fill="#F1813F"/>
<path d="M573.337 266.68C573.959 267.875 574.989 268.81 576.243 269.312L627.021 289.623C628.367 290.163 629.871 290.163 631.218 289.623L681.995 269.312C683.207 268.826 684.209 267.937 684.837 266.799C688.882 268.103 692.875 269.555 696.814 271.159V284.384C693.822 284.384 690.951 285.572 688.835 287.688C686.719 289.804 685.53 292.675 685.53 295.667V318.235H719.382V295.667C719.382 292.675 718.192 289.804 716.076 287.688C713.96 285.573 711.09 284.384 708.098 284.384V276.13C727.565 285.384 744.764 297.474 759.692 312.402C776.526 329.236 789.752 348.955 799.371 371.561C808.99 393.685 813.8 417.492 813.8 442.983C813.8 455.488 809.231 466.31 800.093 475.448C790.955 484.587 780.133 489.155 767.628 489.155H549.031C557.208 503.103 568.269 514.406 582.217 523.063C596.165 531.24 611.797 535.328 629.111 535.328H652.197C664.702 535.328 675.524 539.897 684.662 549.035C693.8 558.173 698.369 568.995 698.369 581.5C698.369 594.005 693.8 604.827 684.662 613.965C675.524 623.103 664.702 627.673 652.197 627.673H629.111C603.62 627.673 579.572 622.863 556.967 613.244C534.843 603.625 515.364 590.398 498.53 573.564C481.697 556.731 468.47 537.252 458.851 515.128C449.231 492.523 444.422 468.474 444.422 442.983C444.422 417.492 449.231 393.685 458.851 371.561C468.47 348.955 481.697 329.236 498.53 312.402C515.364 295.569 534.843 282.342 556.967 272.723C562.342 270.435 567.799 268.423 573.337 266.68ZM629.111 350.639C611.797 350.639 596.165 354.968 582.217 363.625C568.269 371.801 557.208 382.864 549.031 396.812H709.191C701.015 382.864 689.712 371.801 675.283 363.625C661.335 354.968 645.945 350.639 629.111 350.639ZM629.111 160.266C629.934 160.266 630.746 160.446 631.492 160.793L716.12 200.286C717.117 200.751 717.956 201.497 718.534 202.433C719.112 203.368 719.404 204.453 719.374 205.552C719.344 206.651 718.993 207.718 718.365 208.621C717.737 209.524 716.859 210.223 715.839 210.633L708.098 213.736V276.13C705.613 274.949 703.093 273.811 700.534 272.723C699.3 272.186 698.059 271.666 696.814 271.159V218.261L631.21 244.484C629.863 245.024 628.36 245.024 627.013 244.484L542.385 210.633C541.364 210.223 540.486 209.524 539.857 208.621C539.229 207.718 538.879 206.651 538.849 205.552C538.819 204.453 539.111 203.368 539.689 202.433C540.267 201.497 541.106 200.751 542.103 200.286L626.73 160.793C627.476 160.446 628.289 160.266 629.111 160.266ZM674.545 239.259C675.32 239.298 676.08 239.497 676.774 239.844C677.469 240.19 678.085 240.676 678.583 241.271C679.081 241.867 679.451 242.558 679.67 243.303L685.312 262.485C685.708 263.832 685.586 265.278 684.973 266.54C684.93 266.628 684.884 266.714 684.837 266.799C667.253 261.131 648.679 258.294 629.111 258.294C609.681 258.294 591.09 261.091 573.337 266.68C573.313 266.633 573.288 266.587 573.265 266.54C572.651 265.278 572.531 263.832 572.926 262.485L578.567 243.303C578.786 242.558 579.157 241.867 579.655 241.271C580.154 240.676 580.769 240.19 581.464 239.844C582.159 239.497 582.918 239.298 583.693 239.259C584.469 239.219 585.243 239.34 585.97 239.613L629.119 255.794L672.269 239.613C672.995 239.34 673.77 239.219 674.545 239.259Z" fill="#8CB83F"/>
<path d="M1251.92 258.294C1277.41 258.294 1301.22 263.103 1323.35 272.723C1345.95 282.342 1365.67 295.569 1382.5 312.402C1399.34 329.236 1412.56 348.956 1422.18 371.561C1431.8 393.685 1436.61 417.492 1436.61 442.983C1436.61 468.474 1431.8 492.523 1422.18 515.128C1412.56 537.252 1399.34 556.731 1382.5 573.564C1365.67 590.398 1345.95 603.625 1323.35 613.244C1301.22 622.863 1277.41 627.673 1251.92 627.673C1226.43 627.673 1202.38 622.863 1179.78 613.244C1157.66 603.625 1138.18 590.398 1121.34 573.564C1104.51 556.731 1091.28 537.252 1081.66 515.128C1072.04 492.523 1067.23 468.474 1067.23 442.983C1067.23 417.492 1072.04 393.685 1081.66 371.561C1091.28 348.955 1104.51 329.236 1121.34 312.402C1138.18 295.569 1157.66 282.342 1179.78 272.723C1202.38 263.104 1226.43 258.294 1251.92 258.294ZM1251.92 350.639C1238.94 350.639 1226.91 353.044 1215.85 357.854C1204.79 362.663 1194.93 369.396 1186.27 378.054C1178.1 386.23 1171.6 395.849 1166.79 406.911C1161.98 417.973 1159.58 429.997 1159.58 442.983C1159.58 453.681 1161.21 463.726 1164.48 473.118C1159.52 481.815 1156.68 491.881 1156.68 502.608C1156.68 535.539 1183.38 562.234 1216.31 562.234C1237.64 562.234 1256.35 551.035 1266.89 534.195C1274.28 533.045 1281.31 531.019 1288 528.113C1299.06 523.304 1308.68 516.811 1316.85 508.635C1325.51 499.977 1332.24 490.118 1337.05 479.056C1341.86 467.994 1344.27 455.969 1344.27 442.983C1344.27 429.997 1341.86 417.973 1337.05 406.911C1332.24 395.849 1325.51 386.23 1316.85 378.054C1308.68 369.396 1299.06 362.663 1288 357.854C1276.93 353.044 1264.91 350.639 1251.92 350.639ZM1216.31 442.982C1249.24 442.983 1275.94 469.678 1275.94 502.608C1275.94 514.21 1272.62 525.036 1266.89 534.195C1262.05 534.949 1257.06 535.328 1251.92 535.328C1238.94 535.328 1226.91 532.923 1215.85 528.113C1204.79 523.304 1194.93 516.811 1186.27 508.635C1178.1 499.977 1171.6 490.118 1166.79 479.056C1165.95 477.107 1165.17 475.127 1164.48 473.118C1174.74 455.118 1194.11 442.982 1216.31 442.982Z" fill="#D9196C"/>
</svg>
